<?xml version="1.0" standalone="no"?>
<!DOCTYPE svg PUBLIC "-//W3C//DTD SVG 20010904//EN"
 "http://www.w3.org/TR/2001/REC-SVG-20010904/DTD/svg10.dtd">
<svg version="1.0" xmlns="http://www.w3.org/2000/svg"
 width="836.000000pt" height="836.000000pt" viewBox="0 0 836.000000 836.000000"
 preserveAspectRatio="xMidYMid meet">
<metadata>
Created by potrace 1.14, written by Peter Selinger 2001-2017
</metadata>
<g transform="translate(0.000000,836.000000) scale(0.100000,-0.100000)"
fill="#000000" stroke="none">
<path d="M4064 7290 c-30 -12 -80 -73 -95 -117 -18 -51 -16 -159 4 -205 l16
-38 -44 -30 -45 -31 -27 58 c-15 32 -28 59 -29 61 -4 6 -316 122 -330 122 -7
0 -165 -84 -351 -186 -186 -103 -408 -225 -493 -271 -85 -47 -198 -109 -251
-139 l-96 -53 -18 -191 c-10 -104 -21 -194 -24 -199 -3 -4 -34 -23 -69 -40
l-64 -32 -34 20 c-19 12 -40 21 -45 21 -6 0 -44 -15 -85 -34 -73 -34 -74 -35
-74 -73 0 -21 -4 -43 -8 -50 -4 -6 -60 -37 -126 -69 l-118 -58 6 -71 c3 -38 8
-115 12 -170 l6 -100 -41 62 c-50 73 -88 108 -156 139 -66 31 -171 33 -247 4
-160 -60 -278 -262 -278 -473 1 -152 34 -246 120 -340 72 -79 125 -102 235
-102 78 0 97 4 146 28 31 15 81 52 110 81 l54 54 45 -22 45 -21 7 -120 c3 -66
9 -154 12 -197 l5 -76 -107 -6 c-236 -14 -241 -15 -282 -53 -84 -75 -95 -243
-23 -341 51 -68 99 -77 283 -48 l145 22 6 -25 c4 -14 7 -53 8 -87 0 -34 4 -95
7 -136 l7 -76 79 -43 79 -44 25 -75 c111 -332 427 -627 784 -733 47 -14 104
-29 128 -32 l43 -7 -60 -61 c-73 -75 -87 -93 -139 -182 -49 -84 -102 -219
-132 -335 l-22 -85 33 -27 c18 -16 37 -28 41 -28 4 0 -72 -100 -169 -222 -98
-123 -211 -266 -253 -319 -41 -52 -103 -130 -137 -173 -35 -43 -63 -82 -63
-86 0 -19 369 -235 389 -228 5 1 49 58 98 126 48 67 180 249 293 404 113 155
208 286 211 291 4 5 46 -5 95 -21 49 -17 113 -35 142 -42 28 -7 52 -16 52 -21
0 -9 -236 -579 -336 -810 -30 -70 -54 -129 -54 -132 0 -11 361 -107 403 -107
16 0 20 9 113 243 37 93 120 300 184 460 l118 292 113 0 112 0 253 -505 c139
-278 255 -509 256 -513 6 -14 312 45 464 89 l53 15 -240 480 c-131 264 -239
483 -239 487 0 4 60 19 133 34 72 16 141 30 153 34 18 5 65 -53 343 -424 l323
-430 46 20 c53 23 267 140 296 161 18 13 13 22 -87 168 -57 85 -157 231 -220
324 -64 94 -139 203 -167 244 -28 40 -50 74 -48 76 2 1 47 17 101 35 55 19
101 40 104 47 8 22 -16 158 -44 242 -33 104 -113 261 -193 384 -71 108 -117
157 -190 203 l-45 28 70 22 c39 12 176 56 305 97 l235 76 -3 116 -2 117 222
-6 c123 -4 246 -9 274 -12 l50 -5 49 -202 c26 -111 54 -231 61 -266 27 -130
56 -146 301 -165 382 -31 366 -31 401 -1 68 57 63 175 -10 241 -21 20 -38 22
-193 28 -93 4 -200 9 -236 12 l-65 6 -28 181 c-35 233 -48 278 -86 311 -39 32
-49 34 -320 46 -124 6 -269 13 -322 16 l-98 7 0 53 0 54 -103 0 -103 0 -13
161 c-6 89 -10 163 -9 164 2 1 57 14 123 28 66 15 260 58 430 97 171 38 314
70 318 70 4 0 5 20 2 44 l-6 45 43 5 c37 5 647 45 718 48 14 0 45 -9 70 -20
94 -43 174 -37 227 17 26 26 35 28 137 34 122 8 156 21 193 77 45 66 21 184
-45 223 -37 21 -80 21 -197 2 -49 -8 -95 -15 -101 -15 -6 0 -51 57 -100 128
-48 70 -118 170 -155 222 -62 88 -67 99 -62 135 l5 40 101 0 c166 1 273 49
395 180 231 248 286 688 132 1072 -35 86 -86 177 -137 240 l-33 42 129 183
c141 200 169 248 178 301 12 77 -17 109 -80 88 -52 -17 -87 -61 -212 -266 -64
-104 -119 -192 -121 -194 -9 -9 -83 52 -87 72 -3 12 -15 83 -28 157 -12 74
-27 140 -33 146 -10 10 -506 144 -533 144 -6 0 -41 -18 -77 -41 -54 -34 -67
-47 -79 -82 l-14 -42 -121 -15 -122 -15 -86 -85 c-47 -47 -94 -101 -104 -121
-17 -32 -30 -40 -113 -72 -51 -20 -104 -38 -118 -42 -15 -3 -145 30 -359 93
l-335 99 0 49 c0 27 3 93 5 148 l5 98 -54 20 -53 20 -26 -25 c-22 -22 -27 -40
-36 -129 l-12 -103 -43 60 c-96 131 -86 122 -131 120 -35 -1 -45 -7 -62 -33
l-20 -32 21 -36 c12 -20 20 -38 19 -39 -2 -2 -83 20 -181 49 -165 48 -179 54
-197 83 -28 47 -62 64 -153 79 -94 15 -114 16 -143 4z m173 -80 c49 -29 77
-92 77 -170 0 -99 -44 -160 -116 -160 -23 0 -23 0 4 23 78 63 76 209 -4 289
-35 35 -36 38 -15 38 12 0 36 -9 54 -20z m2681 -46 c125 -31 231 -60 236 -65
5 -5 5 -14 -2 -21 -9 -12 -34 -10 -144 9 -145 24 -178 27 -178 15 0 -5 71 -24
158 -43 l157 -34 3 -51 3 -52 -133 24 c-73 13 -145 25 -160 28 -27 5 -28 4
-28 -38 0 -43 -1 -45 -42 -59 -24 -8 -67 -24 -96 -36 l-54 -21 6 72 c3 40 8
130 12 201 5 100 9 127 20 127 8 0 117 -25 242 -56z m740 -26 c-9 -13 -45 -68
-81 -123 -36 -55 -92 -151 -124 -213 -54 -102 -61 -110 -70 -90 -9 19 -3 38
35 113 62 125 125 221 185 283 53 54 80 69 55 30z m-2689 -214 c293 -82 525
-150 515 -151 -11 -1 -215 28 -454 65 l-435 68 -3 -40 c-1 -23 20 -477 47
-1011 28 -533 51 -994 52 -1023 2 -38 -2 -57 -14 -69 -9 -9 -18 -15 -20 -12
-4 4 -248 2294 -247 2318 0 7 6 11 13 9 6 -2 252 -71 546 -154z m-1398 -21
c21 -65 39 -123 39 -129 0 -11 -73 -44 -96 -44 -6 0 -17 37 -25 83 -8 45 -19
81 -24 80 -6 -1 -235 -96 -510 -212 -275 -115 -501 -208 -503 -207 -1 2 239
128 535 279 296 152 540 274 542 272 2 -3 21 -57 42 -122z m2826 70 c129 -19
123 -13 123 -135 l0 -77 -42 -29 c-128 -88 -238 -261 -288 -452 -28 -108 -38
-326 -20 -438 27 -168 97 -335 190 -450 28 -34 50 -64 50 -66 0 -2 -35 5 -77
15 -43 9 -112 25 -154 34 l-76 16 -178 336 c-105 199 -179 351 -182 374 -3 21
1 57 9 81 12 34 401 654 490 781 23 32 14 31 155 10z m-2189 -158 c62 -15 115
-32 117 -39 4 -12 224 -1999 232 -2102 l5 -60 -166 -48 c-92 -27 -169 -46
-172 -43 -3 3 -28 164 -55 359 -158 1143 -259 1886 -259 1901 0 11 19 26 53
42 61 29 82 28 245 -10z m2908 -5 c245 -82 445 -361 499 -695 74 -451 -128
-856 -457 -916 -283 -52 -592 220 -694 609 -110 424 30 854 323 989 103 47
212 52 329 13z m-3667 -99 c6 -30 10 -55 9 -56 -9 -9 -811 -406 -813 -403 -2
2 2 48 8 102 l12 100 374 157 c205 87 376 161 379 164 10 10 20 -9 31 -64z
m2344 -258 c-74 -137 -138 -252 -143 -257 -4 -4 29 106 74 245 l83 254 54 5
c30 3 57 4 61 3 3 -2 -55 -114 -129 -250z m-2093 210 c0 -5 70 -554 155 -1222
86 -667 154 -1215 153 -1217 -2 -2 -134 -30 -293 -63 -351 -73 -1439 -297
-1658 -342 -95 -20 -161 -29 -166 -23 -5 5 -11 59 -14 120 l-6 111 191 29
c212 32 230 40 250 105 9 31 20 45 50 60 43 22 67 53 78 105 6 24 -2 182 -21
438 -27 375 -29 496 -8 496 5 0 9 -5 9 -10 0 -6 19 -31 41 -55 160 -174 353
61 249 302 -40 94 -132 157 -203 139 -57 -14 -108 -82 -122 -161 -5 -25 -20
-53 -41 -75 -79 -83 -86 -178 -51 -665 14 -181 22 -334 20 -338 -3 -5 -20 6
-39 24 -39 37 -30 37 -266 25 l-168 -8 0 34 c0 39 -66 1094 -74 1181 l-6 57
958 480 c526 263 963 479 970 479 6 1 12 -2 12 -6z m1976 -19 c21 -5 19 -12
-48 -157 -38 -84 -90 -198 -115 -254 -26 -56 -49 -101 -51 -99 -2 2 22 95 53
207 93 340 82 309 113 309 15 0 37 -3 48 -6z m-835 -30 c25 -11 52 -33 70 -57
42 -58 38 -70 -13 -42 -85 47 -165 45 -223 -7 l-35 -30 0 31 c0 96 96 146 201
105z m577 -186 c-28 -68 -77 -186 -109 -263 -32 -77 -59 -135 -59 -129 0 11
87 359 116 462 l15 52 44 0 44 0 -51 -122z m-618 27 c8 -10 15 -62 19 -135 l6
-119 -29 -5 c-69 -14 -66 -20 -66 127 0 74 3 137 7 140 12 12 50 7 63 -8z
m450 6 c0 -13 -225 -500 -235 -509 -5 -4 -6 0 -2 10 3 9 29 103 57 210 28 106
58 217 66 246 l15 52 50 0 c27 0 49 -4 49 -9z m-211 -80 c11 -7 1 -45 -54
-202 -73 -208 -89 -246 -80 -189 23 155 55 377 55 388 0 14 58 16 79 3z m-209
-223 l35 -21 -30 -13 c-47 -21 -134 -13 -142 13 -5 15 44 42 77 43 14 0 41
-10 60 -22z m-6 -126 c21 -166 20 -181 -5 -190 -32 -12 -58 -3 -64 22 -6 29
-25 185 -25 205 0 13 9 15 44 13 l44 -4 6 -46z m946 -149 c46 -87 112 -214
148 -283 36 -69 60 -120 55 -115 -6 6 -70 109 -142 230 -117 195 -132 215
-126 175 5 -29 4 -41 -3 -35 -13 13 -112 163 -112 169 0 6 35 13 72 15 24 1
33 -11 108 -156z m-90 -200 c85 -186 155 -342 155 -347 0 -11 -94 -81 -100
-74 -3 3 -234 498 -306 655 l-28 62 57 20 c31 11 59 20 62 20 3 1 75 -151 160
-336z m-314 79 c61 -86 159 -240 218 -341 l107 -184 -27 -38 c-25 -36 -30 -39
-73 -39 l-46 0 -190 356 c-104 195 -190 360 -190 366 0 10 55 36 80 37 6 0 60
-70 121 -157z m-264 -37 l101 -85 130 -251 c71 -138 126 -253 123 -256 -5 -5
-148 14 -151 20 -1 1 -88 145 -193 320 -106 175 -192 320 -192 322 0 4 35 11
63 14 10 0 63 -37 119 -84z m-83 -282 c105 -174 189 -318 187 -320 -6 -6 -119
16 -127 25 -7 7 -329 603 -329 609 0 2 18 3 39 3 l40 0 190 -317z m-3710 -33
c50 -60 91 -113 91 -118 0 -6 -11 -17 -25 -26 -42 -28 -67 -90 -63 -158 l3
-60 -110 -39 c-60 -21 -110 -37 -112 -36 -1 2 -10 32 -19 67 -11 45 -15 92
-12 159 3 82 8 106 35 163 25 53 104 158 119 158 1 0 43 -49 93 -110z m166
-268 c6 -5 51 -24 100 -42 50 -18 91 -34 93 -35 5 -4 19 -105 15 -109 -8 -8
-278 87 -290 102 -16 20 -17 96 -2 125 6 12 23 35 38 50 l26 29 5 -56 c3 -30
10 -59 15 -64z m3445 -62 l107 -80 202 0 c154 0 201 -3 200 -12 0 -7 -46 -76
-102 -153 l-102 -140 -168 -14 -168 -14 -56 54 -55 54 6 110 c10 180 18 275
24 275 3 0 53 -36 112 -80z m1399 65 l282 -16 122 -53 122 -54 181 -223 181
-224 -34 -18 c-49 -26 -70 -75 -54 -126 13 -44 57 -85 104 -96 45 -12 40 -23
-16 -36 -105 -23 -96 -32 -354 350 l-228 338 -180 22 c-99 12 -191 24 -205 26
-22 5 -44 -15 -168 -148 l-143 -154 -186 -37 c-103 -21 -197 -43 -211 -49 -50
-23 -70 -122 -33 -168 16 -20 31 -25 88 -29 l68 -6 -48 -46 c-70 -67 -125 -92
-193 -86 -45 4 -61 11 -85 35 -54 54 -48 146 15 231 13 18 158 156 322 306
272 250 302 275 335 275 19 1 162 -6 318 -14z m70 -166 l100 -21 161 -210 c88
-115 163 -215 167 -223 3 -9 -1 -15 -8 -15 -8 0 -140 -20 -293 -45 -154 -24
-281 -44 -282 -42 -1 1 -12 114 -24 250 l-22 249 38 39 c21 21 44 39 51 39 7
0 57 -10 112 -21z m-355 -284 c59 -64 29 -195 -45 -195 -41 0 -69 41 -69 102
0 100 61 150 114 93z m-172 -81 c-3 -26 2 -44 17 -65 20 -26 20 -29 4 -29 -10
-1 -83 -9 -163 -20 -129 -16 -148 -17 -168 -4 -32 21 -37 41 -20 77 15 31 17
32 149 53 191 31 186 32 181 -12z m-1084 -8 c15 -8 40 -28 56 -44 l28 -31 -33
-5 c-155 -24 -165 -26 -181 -47 -25 -29 -22 -73 5 -105 l23 -27 99 12 c54 6
100 9 103 7 19 -20 -47 -114 -99 -142 -54 -28 -141 -15 -187 29 -101 94 -79
292 39 350 42 20 111 22 147 3z m2797 -32 c24 -10 45 -58 45 -104 0 -125 -109
-153 -141 -36 -23 83 32 164 96 140z m-2375 -38 c0 -10 -53 -97 -63 -103 -23
-14 -431 -61 -449 -51 -21 10 -23 41 -4 57 10 9 215 49 509 100 4 0 7 -1 7 -3z
m-3705 -209 c60 -60 70 -165 24 -247 -32 -57 -83 -75 -127 -44 -83 58 -82 254
2 305 44 27 63 24 101 -14z m4070 -121 c237 -29 423 -56 415 -59 -8 -3 -44 -9
-80 -14 -59 -8 -108 -2 -460 59 -217 37 -402 70 -410 72 -29 10 110 -5 535
-58z m-3576 -21 c117 -13 215 -26 217 -28 2 -2 -110 -18 -248 -35 -138 -18
-253 -30 -256 -27 -3 3 0 30 7 60 15 66 -10 63 280 30z m2634 -91 c188 -36
383 -73 432 -83 l90 -19 -366 -1 c-201 0 -368 -3 -371 -6 -2 -3 8 -73 24 -156
16 -83 27 -153 24 -157 -5 -5 -187 -30 -227 -32 -13 0 -19 33 -38 198 -12 108
-25 214 -28 235 -6 37 -5 37 48 61 30 14 58 25 62 25 5 1 162 -29 350 -65z
m-1028 -95 c-69 -196 -232 -347 -451 -421 -59 -20 -89 -23 -214 -23 -133 0
-152 2 -233 29 -48 16 -116 47 -149 68 -65 42 -158 117 -158 127 0 4 51 17
113 29 l112 22 65 -26 c202 -84 437 -38 589 115 l66 66 120 27 c165 36 157 37
140 -13z m460 -141 c-17 -55 -69 -171 -101 -224 -161 -267 -429 -449 -753
-510 -130 -25 -374 -15 -498 20 -118 33 -198 66 -296 124 -73 44 -237 176
-244 197 -2 6 75 27 172 47 l174 37 73 -33 c122 -56 195 -71 353 -71 169 0
236 15 380 85 110 53 193 117 262 201 l45 54 211 47 c117 25 216 47 220 47 5
1 5 -9 2 -21z m448 -328 l69 0 59 -57 58 -58 3 -130 2 -130 -48 -68 c-27 -38
-58 -72 -70 -76 -11 -5 -68 -10 -126 -12 l-105 -4 -27 220 c-14 121 -29 244
-33 274 l-7 54 78 -6 c42 -4 108 -7 147 -7z m-350 -75 c-45 -30 -84 -59 -87
-64 -4 -5 -3 -73 0 -150 l7 -140 91 -36 c50 -20 93 -39 96 -42 5 -5 -175 5
-225 12 l-30 5 -28 201 c-15 111 -26 203 -25 204 5 4 251 63 268 64 8 1 -22
-24 -67 -54z m1125 -140 c7 -3 12 -21 12 -45 l0 -40 -137 0 c-76 0 -195 3
-265 7 l-128 6 0 44 0 44 253 -6 c138 -4 258 -8 265 -10z m41 -1088 c17 -46
31 -88 31 -94 0 -12 -229 -63 -412 -93 -247 -39 -337 -45 -698 -45 -460 0
-844 32 -595 49 583 40 1177 133 1515 235 52 16 102 30 111 30 12 1 26 -24 48
-82z"/>
<path d="M4147 6742 c-26 -29 -22 -78 8 -98 24 -16 27 -16 45 1 36 32 18 115
-24 115 -7 0 -20 -8 -29 -18z"/>
<path d="M4206 6338 c-9 -12 -16 -29 -16 -38 0 -24 29 -60 49 -60 45 0 68 72
33 103 -25 23 -48 21 -66 -5z"/>
<path d="M4266 5924 c-19 -18 -21 -75 -4 -92 7 -7 21 -12 33 -12 30 0 45 19
45 56 0 34 -21 64 -45 64 -7 0 -21 -7 -29 -16z"/>
<path d="M4322 5398 c-29 -29 -2 -108 36 -108 21 0 42 32 42 64 0 37 -15 56
-45 56 -12 0 -26 -5 -33 -12z"/>
<path d="M6929 6637 c-95 -36 -159 -99 -215 -212 -68 -141 -89 -301 -60 -473
33 -196 92 -325 200 -439 90 -96 172 -138 266 -138 36 0 75 4 87 8 19 7 22 5
21 -22 -1 -17 5 -37 12 -46 15 -18 79 -20 104 -2 16 12 15 13 -6 14 -20 2 -48
27 -48 44 0 3 17 28 39 55 91 115 136 231 151 392 33 355 -121 695 -364 802
-61 27 -140 34 -187 17z"/>
<path d="M7344 5395 c-8 -21 3 -47 19 -43 6 3 13 14 15 25 4 24 -26 40 -34 18z"/>
<path d="M2676 5631 c113 -69 162 -259 99 -388 -16 -33 -40 -62 -58 -73 -25
-16 -28 -20 -14 -25 49 -19 136 47 162 123 57 169 -47 382 -187 382 l-33 0 31
-19z"/>
</g>
</svg>
